<?xml version="1.0" encoding="UTF-8"?>
<svg width="16px" height="14px" viewBox="0 0 16 14" version="1.1" xmlns="http://www.w3.org/2000/svg" xmlns:xlink="http://www.w3.org/1999/xlink">
    <!-- Generator: Sketch 49.3 (51167) - http://www.bohemiancoding.com/sketch -->
    <title>Artboard</title>
    <desc>Created with Sketch.</desc>
    <defs></defs>
    <g id="Artboard" stroke="none" stroke-width="1" fill="none" fill-rule="evenodd">
        <path d="M8.725,0.5 C8.545,0.19 8.215,0 7.855,0 C7.495,0 7.165,0.19 6.985,0.5 L0.135,12.48 C-0.045,12.79 -0.045,13.17 0.135,13.48 C0.325,13.79 0.655,13.98 1.005,13.98 L14.705,13.98 C15.065,13.98 15.395,13.79 15.565,13.48 C15.735,13.17 15.745,12.79 15.575,12.48 L8.725,0.5 Z M8.855,11.98 L6.855,11.98 L6.855,9.98 L8.855,9.98 L8.855,11.98 L8.855,11.98 Z M8.855,8.98 L6.855,8.98 L6.855,4.98 L8.855,4.98 L8.855,8.98 L8.855,8.98 Z" id="Shape" fill="#F8E71C"></path>
    </g>
</svg>